<mxfile host="app.diagrams.net" modified="2020-10-24T04:02:21.124Z" agent="5.0 (Macintosh; Intel Mac OS X 10_15_5) AppleWebKit/537.36 (KHTML, like Gecko) Chrome/83.0.4103.106 Safari/537.36" etag="3k4azWJ5viJU-Fnw98u3" version="13.8.1" type="github">
  <diagram name="Page-1" id="12e1b939-464a-85fe-373e-61e167be1490">
    <mxGraphModel dx="1186" dy="614" grid="1" gridSize="10" guides="1" tooltips="1" connect="1" arrows="1" fold="1" page="1" pageScale="1.5" pageWidth="1169" pageHeight="826" background="#ffffff" math="0" shadow="0">
      <root>
        <mxCell id="0" />
        <mxCell id="1" parent="0" />
        <mxCell id="Caeu1841jmlIMQ_xMEgj-7" style="edgeStyle=orthogonalEdgeStyle;rounded=0;orthogonalLoop=1;jettySize=auto;html=1;exitX=1;exitY=0.5;exitDx=0;exitDy=0;exitPerimeter=0;entryX=0;entryY=0.5;entryDx=0;entryDy=0;" edge="1" parent="1" source="Caeu1841jmlIMQ_xMEgj-1">
          <mxGeometry relative="1" as="geometry">
            <mxPoint x="440" y="160" as="targetPoint" />
          </mxGeometry>
        </mxCell>
        <mxCell id="Caeu1841jmlIMQ_xMEgj-1" value="开始" style="strokeWidth=2;html=1;shape=mxgraph.flowchart.start_1;whiteSpace=wrap;" vertex="1" parent="1">
          <mxGeometry x="300" y="130" width="100" height="60" as="geometry" />
        </mxCell>
        <mxCell id="Caeu1841jmlIMQ_xMEgj-13" value="" style="edgeStyle=orthogonalEdgeStyle;rounded=0;orthogonalLoop=1;jettySize=auto;html=1;" edge="1" parent="1" source="Caeu1841jmlIMQ_xMEgj-4" target="Caeu1841jmlIMQ_xMEgj-5">
          <mxGeometry relative="1" as="geometry" />
        </mxCell>
        <mxCell id="Caeu1841jmlIMQ_xMEgj-4" value="下载项目代码" style="rounded=1;whiteSpace=wrap;html=1;absoluteArcSize=1;arcSize=14;strokeWidth=2;" vertex="1" parent="1">
          <mxGeometry x="580" y="130" width="100" height="60" as="geometry" />
        </mxCell>
        <mxCell id="Caeu1841jmlIMQ_xMEgj-14" value="" style="edgeStyle=orthogonalEdgeStyle;rounded=0;orthogonalLoop=1;jettySize=auto;html=1;" edge="1" parent="1" source="Caeu1841jmlIMQ_xMEgj-5" target="Caeu1841jmlIMQ_xMEgj-6">
          <mxGeometry relative="1" as="geometry" />
        </mxCell>
        <mxCell id="Caeu1841jmlIMQ_xMEgj-5" value="Cherry Pick 补丁" style="rounded=1;whiteSpace=wrap;html=1;absoluteArcSize=1;arcSize=14;strokeWidth=2;" vertex="1" parent="1">
          <mxGeometry x="720" y="130" width="100" height="60" as="geometry" />
        </mxCell>
        <mxCell id="Caeu1841jmlIMQ_xMEgj-15" value="" style="edgeStyle=orthogonalEdgeStyle;rounded=0;orthogonalLoop=1;jettySize=auto;html=1;" edge="1" parent="1" source="Caeu1841jmlIMQ_xMEgj-6" target="Caeu1841jmlIMQ_xMEgj-8">
          <mxGeometry relative="1" as="geometry" />
        </mxCell>
        <mxCell id="Caeu1841jmlIMQ_xMEgj-6" value="&lt;span&gt;编译项目&lt;/span&gt;" style="rounded=1;whiteSpace=wrap;html=1;absoluteArcSize=1;arcSize=14;strokeWidth=2;" vertex="1" parent="1">
          <mxGeometry x="860" y="130" width="100" height="60" as="geometry" />
        </mxCell>
        <mxCell id="Caeu1841jmlIMQ_xMEgj-18" value="" style="edgeStyle=orthogonalEdgeStyle;rounded=0;orthogonalLoop=1;jettySize=auto;html=1;" edge="1" parent="1" source="Caeu1841jmlIMQ_xMEgj-8" target="Caeu1841jmlIMQ_xMEgj-16">
          <mxGeometry relative="1" as="geometry" />
        </mxCell>
        <mxCell id="Caeu1841jmlIMQ_xMEgj-8" value="代码规范检查(CheckStyle)" style="rounded=1;whiteSpace=wrap;html=1;absoluteArcSize=1;arcSize=14;strokeWidth=2;" vertex="1" parent="1">
          <mxGeometry x="1000" y="130" width="100" height="60" as="geometry" />
        </mxCell>
        <mxCell id="Caeu1841jmlIMQ_xMEgj-10" value="结束" style="strokeWidth=2;html=1;shape=mxgraph.flowchart.terminator;whiteSpace=wrap;" vertex="1" parent="1">
          <mxGeometry x="720" y="270" width="100" height="60" as="geometry" />
        </mxCell>
        <mxCell id="Caeu1841jmlIMQ_xMEgj-11" value="准备测试环境" style="rounded=1;whiteSpace=wrap;html=1;absoluteArcSize=1;arcSize=14;strokeWidth=2;" vertex="1" parent="1">
          <mxGeometry x="440" y="130" width="100" height="60" as="geometry" />
        </mxCell>
        <mxCell id="Caeu1841jmlIMQ_xMEgj-12" style="edgeStyle=orthogonalEdgeStyle;rounded=0;orthogonalLoop=1;jettySize=auto;html=1;exitX=1;exitY=0.5;exitDx=0;exitDy=0;exitPerimeter=0;entryX=0;entryY=0.5;entryDx=0;entryDy=0;" edge="1" parent="1">
          <mxGeometry relative="1" as="geometry">
            <mxPoint x="540" y="159.5" as="sourcePoint" />
            <mxPoint x="580" y="159.5" as="targetPoint" />
          </mxGeometry>
        </mxCell>
        <mxCell id="Caeu1841jmlIMQ_xMEgj-21" style="edgeStyle=orthogonalEdgeStyle;rounded=0;orthogonalLoop=1;jettySize=auto;html=1;entryX=0.5;entryY=0;entryDx=0;entryDy=0;" edge="1" parent="1" source="Caeu1841jmlIMQ_xMEgj-16" target="Caeu1841jmlIMQ_xMEgj-20">
          <mxGeometry relative="1" as="geometry" />
        </mxCell>
        <mxCell id="Caeu1841jmlIMQ_xMEgj-16" value="代码逻辑检查(Coverity)" style="rounded=1;whiteSpace=wrap;html=1;absoluteArcSize=1;arcSize=14;strokeWidth=2;" vertex="1" parent="1">
          <mxGeometry x="1140" y="130" width="100" height="60" as="geometry" />
        </mxCell>
        <mxCell id="Caeu1841jmlIMQ_xMEgj-26" value="" style="edgeStyle=orthogonalEdgeStyle;rounded=0;orthogonalLoop=1;jettySize=auto;html=1;" edge="1" parent="1" source="Caeu1841jmlIMQ_xMEgj-20" target="Caeu1841jmlIMQ_xMEgj-22">
          <mxGeometry relative="1" as="geometry" />
        </mxCell>
        <mxCell id="Caeu1841jmlIMQ_xMEgj-20" value="包大小检查" style="rounded=1;whiteSpace=wrap;html=1;absoluteArcSize=1;arcSize=14;strokeWidth=2;" vertex="1" parent="1">
          <mxGeometry x="1140" y="270" width="100" height="60" as="geometry" />
        </mxCell>
        <mxCell id="Caeu1841jmlIMQ_xMEgj-25" value="" style="edgeStyle=orthogonalEdgeStyle;rounded=0;orthogonalLoop=1;jettySize=auto;html=1;" edge="1" parent="1" source="Caeu1841jmlIMQ_xMEgj-22" target="Caeu1841jmlIMQ_xMEgj-23">
          <mxGeometry relative="1" as="geometry" />
        </mxCell>
        <mxCell id="Caeu1841jmlIMQ_xMEgj-22" value="安装/启动/卸载&lt;br&gt;检查" style="rounded=1;whiteSpace=wrap;html=1;absoluteArcSize=1;arcSize=14;strokeWidth=2;" vertex="1" parent="1">
          <mxGeometry x="1000" y="270" width="100" height="60" as="geometry" />
        </mxCell>
        <mxCell id="Caeu1841jmlIMQ_xMEgj-24" value="" style="edgeStyle=orthogonalEdgeStyle;rounded=0;orthogonalLoop=1;jettySize=auto;html=1;" edge="1" parent="1" source="Caeu1841jmlIMQ_xMEgj-23" target="Caeu1841jmlIMQ_xMEgj-10">
          <mxGeometry relative="1" as="geometry" />
        </mxCell>
        <mxCell id="Caeu1841jmlIMQ_xMEgj-23" value="遍历测试" style="rounded=1;whiteSpace=wrap;html=1;absoluteArcSize=1;arcSize=14;strokeWidth=2;" vertex="1" parent="1">
          <mxGeometry x="860" y="270" width="100" height="60" as="geometry" />
        </mxCell>
      </root>
    </mxGraphModel>
  </diagram>
</mxfile>
